<?xml version="1.0" encoding="UTF-8" standalone="no"?>
<!DOCTYPE svg PUBLIC "-//W3C//DTD SVG 1.1//EN" "http://www.w3.org/Graphics/SVG/1.1/DTD/svg11.dtd">
<svg width="100%" height="100%" viewBox="0 0 24 24" version="1.1" xmlns="http://www.w3.org/2000/svg" xmlns:xlink="http://www.w3.org/1999/xlink" xml:space="preserve" xmlns:serif="http://www.serif.com/" style="fill-rule:evenodd;clip-rule:evenodd;stroke-linejoin:round;stroke-miterlimit:2;">
    <g transform="matrix(1,0,0,1,-60,-96)">
        <g id="Request-Profiler" serif:id="Request Profiler" transform="matrix(0.24,0,0,0.24,59.52,96.24)">
            <rect x="2" y="-1" width="100" height="100" style="fill:none;"/>
            <clipPath id="_clip1">
                <rect x="2" y="-1" width="100" height="100"/>
            </clipPath>
            <g clip-path="url(#_clip1)">
                <g transform="matrix(50,0,0,50,2,-1)">
                    <rect x="0" y="0" width="2" height="2" style="fill:rgb(87,117,144);"/>
                </g>
                <g transform="matrix(0.674624,0,0,0.674624,18.267282,15.268968)">
                    <path d="M25.219,2.781L64.977,2.777C66.685,2.781 68.071,4.166 68.071,5.877L68.071,10.996L94.036,17.953C95.681,18.402 96.655,20.097 96.218,21.746L76.607,94.922C76.166,96.574 74.47,97.56 72.818,97.119L26.63,84.742L6.778,84.742C5.067,84.742 3.68,83.353 3.68,81.642L3.68,24.347C3.68,23.437 4.079,22.57 4.774,21.984L22.887,3.875C23.379,3.297 24.063,2.918 24.813,2.809C24.946,2.793 25.082,2.781 25.219,2.781ZM22.117,13.371L14.235,21.254L22.117,21.254L22.117,13.371ZM68.04,17.422L68.042,81.645C68.042,83.196 66.89,84.512 65.351,84.715C65.218,84.735 65.081,84.742 64.945,84.742L50.546,84.742L71.387,90.324L89.399,23.148L68.04,17.422ZM28.313,8.98L28.313,24.347C28.313,26.058 26.93,27.445 25.219,27.445L9.844,27.445L9.844,78.543L61.844,78.543L61.844,8.98L28.313,8.98Z"/>
                </g>
                <g transform="matrix(4.166667,0,0,4.166667,-400.083121,-148.916454)">
                    <path d="M107.376,49.112C106.98,49.371 106.507,49.521 106,49.521C104.609,49.521 103.479,48.391 103.479,47C103.479,45.609 104.609,44.479 106,44.479C107.391,44.479 108.521,45.609 108.521,47C108.521,47.507 108.371,47.98 108.112,48.376L109.368,49.632C109.572,49.835 109.572,50.165 109.368,50.368C109.165,50.572 108.835,50.572 108.632,50.368L107.376,49.112ZM106,45.521C105.184,45.521 104.521,46.184 104.521,47C104.521,47.816 105.184,48.479 106,48.479C106.816,48.479 107.479,47.816 107.479,47C107.479,46.184 106.816,45.521 106,45.521Z" style="fill-opacity:0.4;"/>
                </g>
                <g transform="matrix(4.166667,0,0,4.166667,-248,-401)">
                    <path d="M70,113L76,115L79,103L74,102L74,113L70,113Z" style="fill-opacity:0.4;"/>
                </g>
                <g transform="matrix(4.166667,0,0,4.166667,-248,-401)">
                    <path d="M65,104L68,104L68,101L65.126,104" style="fill-opacity:0.4;"/>
                </g>
            </g>
        </g>
        <g id="Colors">
        </g>
    </g>
</svg>
